<?xml version="1.0" encoding="utf-8"?><svg viewBox="0 0 136 80" xmlns="http://www.w3.org/2000/svg" xmlns:xlink="http://www.w3.org/1999/xlink"><style>:root>svg{display:none}:root>svg:target{display:block}</style><svg fill="none" viewBox="0 0 24 24" id="corona-icon" xmlns="http://www.w3.org/2000/svg"><path fill-rule="evenodd" clip-rule="evenodd" d="M12 9.693l-9.643 5.98-.357.012L5.063 6l2.074.287-1.798 5.396 6.539-3.878h.244l2.033 1.206-.713 1.542L12 9.693zM12.065 19h-.215l-3.262-6.651 1.752-1.042 1.64 3.482 1.944-3.946h-.002l.732-1.536 4.007 2.376-1.798-5.396L18.938 6 22 15.685l-.357-.012-6.005-3.757L12.065 19z" fill="#0075FF"/></svg><svg fill="none" viewBox="0 0 136 80" id="logo" xmlns="http://www.w3.org/2000/svg"><path d="M68 24.767l24.108-14.95.892-.03L85.343 34l-5.184-.718 4.493-13.49-16.346 9.695h-.612l-5.082-3.014 1.783-3.856L68 24.767z" fill="#fff"/><path d="M67.838 1.5h.538l8.153 16.628-4.378 2.605-4.102-8.705-4.858 9.864.003.002-1.83 3.838-10.017-5.94 4.494 13.49-5.185.718L43 9.787l.892.03 15.013 9.393L67.838 1.5zM20.52 49.896L30.06 37.8h7.812V63h-7.308V46.908L20.52 59.22h-.36L10.116 46.908V63H3.024V37.8h8.028l9.468 12.096zM49.614 37.8V63h-7.343V37.8h7.343z" fill="#fff"/><path fill-rule="evenodd" clip-rule="evenodd" d="M77.244 63h7.812L72.024 37.8h-8.028L50.964 63h7.704l2.376-4.824h13.824L77.244 63zm-13.68-10.044l4.392-8.928 4.356 8.928h-8.748z" fill="#fff"/><path d="M103.841 49.896l9.54-12.096h7.812V63h-7.308V46.908L103.841 59.22h-.36L93.437 46.908V63h-7.092V37.8h8.028l9.468 12.096zM132.935 63V37.8h-7.344V63h7.344zM4.044 72.45c0 2.509 1.742 3.809 4.38 3.809 1.587 0 2.9-.52 3.602-1.742l1.04.52c-.858 1.365-2.444 2.236-4.667 2.236-3.393 0-5.473-1.872-5.473-4.823 0-2.951 2.08-4.823 5.512-4.823 2.184 0 3.77.884 4.628 2.236l-1.04.52c-.715-1.209-2.015-1.742-3.601-1.742-2.64 0-4.381 1.3-4.381 3.809z" fill="#fff"/><path fill-rule="evenodd" clip-rule="evenodd" d="M26.84 72.45c0 2.964-2.08 4.823-5.538 4.823s-5.538-1.859-5.538-4.823c0-2.964 2.08-4.823 5.538-4.823s5.538 1.859 5.538 4.823zm-9.958 0c0 2.444 1.742 3.809 4.42 3.809s4.42-1.365 4.42-3.809-1.742-3.809-4.42-3.809-4.42 1.365-4.42 3.809z" fill="#fff"/><path d="M39.192 67.9v7.501L31.77 67.9h-1.183V77h1.066v-7.709L39.296 77h.962v-9.1h-1.066z" fill="#fff"/><path fill-rule="evenodd" clip-rule="evenodd" d="M44.669 67.9h4.42c3.328 0 5.46 1.755 5.46 4.55S52.417 77 49.089 77h-4.42v-9.1zm1.092 8.086h3.25c2.587 0 4.42-1.209 4.42-3.536s-1.833-3.536-4.42-3.536h-3.25v7.072zM63.157 77.273c3.458 0 5.538-1.859 5.538-4.823 0-2.964-2.08-4.823-5.538-4.823s-5.538 1.859-5.538 4.823c0 2.964 2.08 4.823 5.538 4.823zm0-1.014c-2.678 0-4.42-1.365-4.42-3.809s1.741-3.809 4.42-3.809c2.678 0 4.42 1.365 4.42 3.809s-1.742 3.809-4.42 3.809z" fill="#fff"/><path d="M83.01 71.475L87.833 77h-1.391l-4.316-4.888-3.03 2.366V77h-1.091v-9.1h1.092v5.33l6.89-5.33h1.56l-4.537 3.575zM91.948 67.9h-1.092V77h1.092v-9.1zM104.975 75.401V67.9h1.066V77h-.962l-7.644-7.709V77H96.37v-9.1h1.183l7.423 7.501zM120.475 72.268h-5.226v1.014h4.134v1.183c-.676 1.261-2.158 1.794-3.965 1.794-2.782 0-4.524-1.287-4.524-3.809 0-2.522 1.729-3.809 4.446-3.809 1.651 0 2.86.52 3.679 1.547l.949-.663c-.91-1.066-2.405-1.898-4.628-1.898-3.484 0-5.564 1.859-5.564 4.823 0 2.964 2.08 4.823 5.603 4.823 2.522 0 4.342-1.066 5.096-2.483v-2.522zM124.725 70.279c0 1.131 1.716 1.365 3.861 1.534 2.769.221 4.693.754 4.693 2.548 0 1.677-1.703 2.912-4.667 2.912-1.989 0-3.9-.624-5.317-1.872l.767-.819c1.326 1.17 2.795 1.677 4.615 1.677 2.197 0 3.484-.689 3.484-1.82 0-1.105-1.339-1.378-3.796-1.586-2.431-.208-4.758-.741-4.758-2.535 0-1.716 2.158-2.691 4.589-2.691 1.976 0 3.601.689 4.654 1.625l-.858.728c-.884-.871-2.223-1.326-3.744-1.339-1.625-.013-3.523.442-3.523 1.638z" fill="#fff"/></svg><svg fill="none" viewBox="0 0 24 24" id="phone-icon" xmlns="http://www.w3.org/2000/svg"><g clip-path="url(#cclip0_16033_266)"><path d="M20.01 15.38c-1.23 0-2.42-.2-3.53-.56a.977.977 0 00-1.01.24l-1.57 1.97c-2.83-1.35-5.48-3.9-6.89-6.83l1.95-1.66c.27-.28.35-.67.24-1.02-.37-1.11-.56-2.3-.56-3.53 0-.54-.45-.99-.99-.99H4.19C3.65 3 3 3.24 3 3.99 3 13.28 10.73 21 20.01 21c.71 0 .99-.63.99-1.18v-3.45c0-.54-.45-.99-.99-.99z" fill="#fff"/></g><defs><clipPath id="cclip0_16033_266"><path fill="#fff" d="M0 0h24v24H0z"/></clipPath></defs></svg></svg>